# xmcd
#
# Track frame offsets:
# 150
# 19286
# 35628
# 57005
# 76183
# 95482
# 112352
# 128857
# 144157
# 167052
#
# Disc length: 2450 seconds
#
#
# Revision: 0
# Processed by: cddbd v1.5.2PL0 Copyright (c) Steve Scherf et al.
# Submitted via: FreeRIP 2.945 
#
DISCID=8309900a
DTITLE=Diversi - Duete Manele Vol.2
DYEAR=2007
DGENRE=Folklore
TTITLE0=N.Guta,C.Dules,Brazilianu',Cipri Talent, Gerald - Campionii
TTITLE1=N.Guta, Brazilianu, Gerald, Talentu' - Daca s-ar intoarce tata
TTITLE2=N. guta, Brazilianu' - Tu ai plecat
TTITLE3=N. Guta, C.Dules - Ce mult te-am iubit
TTITLE4=C.Dules - Eu râd cu tine
TTITLE5=Brazilianu',C.Dules,Gerald - Am abonament la bani
TTITLE6=N.Guta,C.Dules - Am noroc in toate
TTITLE7=Brazilianu' - Esti femeia cea mai sic
TTITLE8=C.Dules,Gerald,Brazilianu' - Ma intorc blindat de bani
TTITLE9=N.Guta, Brazilianu' - Si cand mor am valoare (De-ar fi mai repede!)
EXTD=Manele pentru TOnTI - by ...:::TINEL:::...
EXTT0=
EXTT1=
EXTT2=
EXTT3=
EXTT4=
EXTT5=
EXTT6=
EXTT7=
EXTT8=
EXTT9=
PLAYORDER=
